<?xml version="1.0" standalone="no"?>
<!DOCTYPE svg PUBLIC "-//W3C//DTD SVG 20010904//EN"
 "http://www.w3.org/TR/2001/REC-SVG-20010904/DTD/svg10.dtd">
<svg version="1.0" xmlns="http://www.w3.org/2000/svg"
 width="1566.000000pt" height="269.000000pt" viewBox="0 0 1566.000000 269.000000"
 preserveAspectRatio="xMidYMid meet">

<g transform="translate(0.000000,269.000000) scale(0.100000,-0.100000)"
fill="#000000" stroke="none">
<path d="M7739 2615 c-23 -36 -43 -65 -45 -65 -2 0 -35 22 -74 50 -38 27 -70
47 -70 43 0 -3 14 -30 30 -60 17 -29 30 -58 30 -64 0 -6 -16 -38 -35 -70 -39
-67 -37 -67 52 3 l62 49 46 -72 c26 -40 50 -68 55 -63 4 5 26 37 48 71 l40 63
71 -56 c39 -30 71 -52 71 -48 0 3 -16 32 -35 64 l-35 58 35 62 c19 34 35 64
35 67 0 3 -28 -15 -62 -39 -35 -25 -68 -48 -75 -52 -8 -4 -27 16 -54 59 -22
36 -43 65 -45 65 -3 0 -23 -29 -45 -65z"/>
<path d="M5630 2613 c-916 -11 -2258 -48 -2630 -73 -63 -4 937 -8 2224 -9
2223 -1 2338 0 2331 17 -4 9 -12 29 -17 45 l-10 27 -856 -2 c-472 -2 -940 -4
-1042 -5z"/>
<path d="M8023 2594 c-6 -16 -14 -37 -18 -46 -7 -17 108 -18 2331 -17 1287 1
2287 5 2224 9 -253 17 -984 41 -1815 60 -242 6 -951 13 -1576 17 l-1136 6 -10
-29z"/>
<path d="M3115 2489 c370 -20 1207 -45 2006 -59 553 -10 2396 -16 2404 -8 2 2
11 21 20 41 l15 37 -2292 -2 c-1261 0 -2230 -4 -2153 -9z"/>
<path d="M8015 2463 c9 -20 18 -39 20 -41 8 -8 1851 -2 2404 8 799 14 1636 39
2006 59 77 5 -892 9 -2153 9 l-2292 2 15 -37z"/>
<path d="M253 1871 c-81 -30 -145 -84 -191 -161 -60 -102 -76 -299 -34 -420
33 -96 99 -202 196 -315 195 -226 237 -277 277 -337 113 -166 146 -361 83
-494 -48 -100 -182 -132 -290 -69 -114 67 -208 251 -239 468 -6 37 -11 47 -26
47 -18 0 -19 -12 -19 -285 0 -272 1 -285 19 -285 13 0 20 10 25 32 8 41 33 68
64 68 13 0 57 -22 98 -49 94 -63 158 -78 263 -62 220 34 343 183 343 415 -1
203 -88 370 -342 661 -229 262 -273 344 -274 510 -1 86 2 107 23 148 64 131
214 142 317 24 65 -76 120 -214 140 -349 5 -42 9 -48 30 -48 l24 0 0 251 0
250 -22 -3 c-13 -2 -24 -11 -26 -23 -11 -57 -42 -58 -149 -3 -71 36 -92 42
-160 45 -59 3 -90 -1 -130 -16z"/>
<path d="M3570 1850 c0 -18 7 -20 65 -20 l65 0 -2 -854 -3 -854 -24 -26 c-13
-14 -40 -27 -62 -31 -29 -5 -39 -11 -39 -26 0 -18 9 -19 175 -19 168 0 175 1
175 20 0 17 -7 20 -42 20 -59 0 -104 29 -118 77 -8 26 -10 259 -8 768 l3 730
287 -805 286 -805 96 -3 96 -3 0 880 c0 998 -7 918 83 928 37 5 47 9 47 24 0
18 -11 19 -175 19 -168 0 -175 -1 -175 -20 0 -16 7 -20 38 -20 47 0 103 -28
119 -60 10 -19 13 -184 13 -720 -1 -383 -4 -688 -9 -680 -6 11 -352 983 -523
1473 l-10 27 -179 0 c-172 0 -179 -1 -179 -20z"/>
<path d="M8380 1850 c0 -18 7 -20 65 -20 l65 0 0 -747 c0 -809 1 -828 55 -918
34 -57 92 -110 150 -136 65 -30 214 -33 291 -6 102 35 171 121 193 242 7 39
11 303 11 783 l0 724 29 29 c22 21 39 29 65 29 29 0 36 4 36 20 0 19 -7 20
-155 20 -148 0 -155 -1 -155 -20 0 -16 7 -20 36 -20 26 0 43 -8 65 -30 l30
-29 -3 -763 -3 -763 -30 -60 c-41 -82 -93 -118 -178 -123 -81 -4 -142 25 -174
83 l-23 40 0 823 0 822 60 0 c53 0 60 2 60 20 0 19 -7 20 -245 20 -238 0 -245
-1 -245 -20z"/>
<path d="M5070 1353 c0 -18 -241 -1201 -251 -1230 -13 -41 -53 -73 -90 -73
-19 0 -29 -5 -29 -15 0 -13 22 -15 135 -15 113 0 135 2 135 15 0 11 -11 15
-38 15 -45 0 -72 24 -72 63 0 25 35 222 46 260 5 16 18 17 126 15 l121 -3 33
-150 c43 -193 43 -185 -6 -185 -29 0 -40 -4 -40 -15 0 -13 26 -15 170 -15 141
0 170 2 170 14 0 10 -14 16 -42 18 l-43 3 -127 580 c-70 319 -134 613 -143
653 -13 59 -20 72 -36 72 -10 0 -19 -3 -19 -7z m20 -667 c27 -131 50 -245 50
-252 0 -11 -23 -14 -110 -14 -81 0 -110 3 -110 13 0 6 23 129 52 271 35 176
54 253 60 240 4 -10 30 -126 58 -258z"/>
<path d="M6570 1352 c0 -18 -241 -1199 -251 -1229 -13 -41 -53 -73 -90 -73
-19 0 -29 -5 -29 -15 0 -13 22 -15 135 -15 113 0 135 2 135 15 0 11 -11 15
-38 15 -45 0 -72 24 -72 63 0 25 35 222 46 260 5 16 18 17 127 15 l121 -3 33
-150 c42 -194 42 -185 -7 -185 -29 0 -40 -4 -40 -15 0 -13 26 -15 170 -15 141
0 170 2 170 14 0 10 -13 16 -42 18 l-42 3 -128 580 c-70 319 -134 613 -143
653 -13 59 -20 72 -36 72 -10 0 -19 -4 -19 -8z m20 -664 c27 -131 50 -245 50
-253 0 -12 -19 -15 -110 -15 -81 0 -110 3 -110 13 0 6 23 128 52 270 34 166
55 252 60 240 4 -10 30 -125 58 -255z"/>
<path d="M13238 1346 c-123 -33 -189 -136 -192 -296 -2 -138 43 -226 219 -425
155 -176 201 -256 212 -371 13 -144 -50 -226 -166 -215 -102 9 -203 156 -229
333 -4 28 -13 53 -20 56 -9 3 -12 -42 -12 -202 0 -210 6 -239 34 -171 19 46
41 45 118 -2 49 -30 72 -38 123 -41 123 -8 228 53 276 161 19 42 24 68 23 137
-1 151 -54 252 -253 484 -123 143 -163 205 -181 285 -25 105 11 212 79 241
103 42 216 -76 255 -269 7 -36 18 -67 24 -69 9 -3 12 43 12 177 0 100 -4 181
-8 181 -5 0 -14 -11 -20 -25 -15 -32 -31 -31 -106 4 -75 37 -127 44 -188 27z"/>
<path d="M930 1325 c0 -11 12 -15 45 -15 l45 0 0 -630 0 -630 -45 0 c-33 0
-45 -4 -45 -15 0 -13 25 -15 165 -15 140 0 165 2 165 15 0 10 -11 15 -35 15
l-35 0 0 345 0 345 120 0 120 0 0 -345 0 -345 -35 0 c-24 0 -35 -5 -35 -15 0
-13 25 -15 165 -15 140 0 165 2 165 15 0 11 -12 15 -45 15 l-45 0 0 630 0 630
45 0 c33 0 45 4 45 15 0 13 -25 15 -165 15 -140 0 -165 -2 -165 -15 0 -10 11
-15 35 -15 l35 0 0 -270 0 -270 -120 0 -120 0 0 270 0 270 35 0 c24 0 35 5 35
15 0 13 -25 15 -165 15 -140 0 -165 -2 -165 -15z"/>
<path d="M1780 1325 c0 -11 12 -15 45 -15 l45 0 0 -630 0 -630 -45 0 c-33 0
-45 -4 -45 -15 0 -13 26 -15 175 -15 149 0 175 2 175 15 0 11 -12 15 -45 15
l-45 0 0 630 0 630 45 0 c33 0 45 4 45 15 0 13 -26 15 -175 15 -149 0 -175 -2
-175 -15z"/>
<path d="M2180 1325 c0 -11 11 -15 39 -15 l40 0 16 -72 c9 -40 73 -334 143
-653 102 -461 131 -581 144 -583 9 -2 19 5 22 15 3 10 60 288 127 618 67 330
128 612 135 627 17 32 43 48 78 48 16 0 26 6 26 15 0 13 -22 15 -135 15 -113
0 -135 -2 -135 -15 0 -11 12 -15 45 -15 37 0 47 -4 62 -26 16 -25 14 -40 -67
-442 -46 -230 -86 -423 -90 -430 -3 -7 -48 185 -99 425 -51 241 -94 446 -97
455 -4 14 3 17 37 20 23 2 44 9 47 16 3 9 -35 12 -167 12 -145 0 -171 -2 -171
-15z"/>
<path d="M5530 1326 c0 -12 11 -16 45 -16 l45 0 0 -630 0 -630 -45 0 c-34 0
-45 -4 -45 -16 0 -14 23 -15 203 -12 221 4 243 9 310 67 44 39 79 111 102 211
23 98 33 482 16 629 -26 221 -78 336 -176 389 -44 25 -455 32 -455 8z m407
-36 c21 -12 36 -32 43 -57 8 -26 10 -197 8 -558 -3 -478 -4 -523 -21 -553 -25
-46 -72 -72 -129 -72 l-48 0 0 630 0 630 58 0 c39 0 67 -6 89 -20z"/>
<path d="M7030 1325 c0 -11 12 -15 45 -15 l45 0 0 -630 0 -630 -45 0 c-33 0
-45 -4 -45 -15 0 -13 26 -15 175 -15 149 0 175 2 175 15 0 11 -12 15 -45 15
l-45 0 0 335 0 335 59 0 c49 0 65 -4 88 -24 l28 -24 6 -249 c6 -276 13 -316
66 -369 39 -39 105 -54 149 -32 34 16 74 72 74 104 0 32 -16 30 -32 -3 -19
-40 -64 -44 -78 -8 -6 15 -10 121 -10 238 0 121 -5 229 -11 251 -17 60 -75
116 -128 123 l-44 6 59 27 c68 31 86 49 113 110 40 91 35 263 -9 350 -24 47
-79 94 -129 109 -24 7 -120 11 -250 11 -181 0 -211 -2 -211 -15z m403 -41 c36
-36 42 -73 42 -269 0 -232 -16 -265 -130 -265 l-55 0 0 280 0 280 59 0 c50 0
62 -4 84 -26z"/>
<path d="M9430 1325 c0 -11 12 -15 45 -15 l45 0 0 -610 c0 -597 0 -610 -20
-630 -11 -11 -31 -20 -45 -20 -16 0 -25 -6 -25 -15 0 -13 21 -15 125 -15 104
0 125 2 125 15 0 11 -11 15 -35 15 -25 0 -44 8 -60 25 l-25 24 0 537 c0 296 2
535 3 533 2 -2 95 -262 207 -576 l204 -573 68 0 68 0 0 629 c0 693 -3 661 61
661 19 0 29 5 29 15 0 13 -21 15 -125 15 -104 0 -125 -2 -125 -15 0 -11 11
-15 38 -15 25 0 46 -7 60 -20 l22 -21 -1 -502 c0 -492 0 -501 -18 -457 -10 25
-96 267 -191 538 l-174 492 -128 0 c-107 0 -128 -2 -128 -15z"/>
<path d="M10282 1328 c3 -7 23 -14 46 -16 l42 -3 0 -630 0 -629 -45 0 c-33 0
-45 -4 -45 -15 0 -13 26 -15 175 -15 149 0 175 2 175 15 0 11 -12 15 -45 15
l-45 0 0 630 0 630 45 0 c33 0 45 4 45 15 0 13 -26 15 -176 15 -136 0 -175 -3
-172 -12z"/>
<path d="M10680 1325 c0 -11 11 -15 43 -15 l42 0 133 -608 c74 -335 138 -629
144 -655 7 -36 14 -47 29 -47 10 0 19 4 19 8 0 8 214 1068 240 1190 16 70 51
112 96 112 24 0 34 5 34 15 0 13 -22 15 -135 15 -113 0 -135 -2 -135 -15 0
-11 11 -15 39 -15 48 0 71 -20 71 -63 0 -58 -164 -850 -172 -831 -8 21 -188
865 -188 883 0 6 18 11 40 11 29 0 40 4 40 15 0 13 -26 15 -170 15 -144 0
-170 -2 -170 -15z"/>
<path d="M11500 1325 c0 -11 12 -15 45 -15 l45 0 0 -630 0 -630 -45 0 c-33 0
-45 -4 -45 -15 0 -13 41 -15 310 -15 l310 0 0 170 c0 134 -3 170 -13 170 -8 0
-20 -28 -30 -73 -25 -102 -58 -169 -103 -203 -33 -26 -47 -29 -126 -32 l-88
-4 0 331 0 331 63 0 c101 0 153 -49 165 -157 3 -28 10 -43 19 -43 19 0 15 411
-4 418 -9 2 -13 -9 -13 -40 0 -95 -60 -148 -167 -148 l-63 0 0 286 0 286 98
-4 c82 -2 102 -7 130 -26 40 -29 70 -86 86 -165 7 -34 18 -63 24 -65 9 -3 12
35 12 142 l0 146 -305 0 c-264 0 -305 -2 -305 -15z"/>
<path d="M12220 1325 c0 -11 12 -15 45 -15 l45 0 0 -630 0 -630 -45 0 c-33 0
-45 -4 -45 -15 0 -13 26 -15 175 -15 149 0 175 2 175 15 0 11 -12 15 -45 15
l-45 0 0 335 0 335 55 0 c30 0 65 -5 78 -11 49 -22 51 -37 57 -309 5 -263 9
-288 53 -342 17 -21 78 -48 108 -48 55 0 112 51 121 109 5 35 -14 36 -34 1
-21 -38 -65 -42 -72 -7 -3 12 -7 123 -9 247 -4 209 -5 228 -27 273 -26 54 -64
86 -115 94 -39 6 -39 18 2 26 44 9 109 71 130 125 23 59 25 224 4 296 -19 64
-90 140 -146 155 -23 6 -130 11 -252 11 -183 0 -213 -2 -213 -15z m391 -25
c43 -23 53 -66 57 -238 5 -203 -1 -246 -38 -284 -25 -25 -36 -28 -89 -28 l-61
0 0 280 0 280 56 0 c30 0 64 -5 75 -10z"/>
<path d="M13720 1325 c0 -11 12 -15 45 -15 l45 0 0 -630 0 -630 -45 0 c-33 0
-45 -4 -45 -15 0 -13 26 -15 170 -15 144 0 170 2 170 15 0 11 -11 15 -40 15
l-40 0 0 630 0 630 45 0 c33 0 45 4 45 15 0 13 -26 15 -175 15 -149 0 -175 -2
-175 -15z"/>
<path d="M14160 1165 c0 -110 4 -175 10 -175 6 0 10 1 10 3 30 213 83 300 190
314 l40 6 0 -632 0 -631 -45 0 c-33 0 -45 -4 -45 -15 0 -13 26 -15 175 -15
149 0 175 2 175 15 0 11 -12 15 -45 15 l-45 0 0 630 0 630 25 0 c94 0 163 -90
189 -244 7 -38 17 -71 24 -74 9 -3 12 40 12 172 l0 176 -335 0 -335 0 0 -175z"/>
<path d="M14890 1325 c0 -11 11 -15 43 -15 l43 0 107 -348 107 -348 0 -282 0
-282 -45 0 c-33 0 -45 -4 -45 -15 0 -13 26 -15 175 -15 149 0 175 2 175 15 0
11 -12 15 -45 15 l-45 0 0 290 0 291 91 297 c50 163 97 309 105 324 17 34 52
58 81 58 14 0 23 6 23 15 0 12 -19 15 -110 15 -91 0 -110 -3 -110 -15 0 -10
10 -15 29 -15 16 0 34 -7 41 -15 15 -18 13 -30 -76 -322 -37 -120 -71 -233
-76 -251 -5 -19 -12 -31 -16 -28 -3 4 -47 143 -97 309 l-92 302 44 3 c29 2 43
8 43 18 0 12 -29 14 -175 14 -149 0 -175 -2 -175 -15z"/>
</g>
</svg>
